<svg width="83" height="21" viewBox="0 0 83 21" fill="none" xmlns="http://www.w3.org/2000/svg">
<path d="M13.2176 11.0405L11.5813 10.9959L11.6042 9.98196L13.2291 10.0154L13.2176 11.0405Z" fill="#19AE82"/>
<path fill-rule="evenodd" clip-rule="evenodd" d="M16.9136 0.5C19.6141 0.5 21.8226 1.27994 23.3101 2.73955C24.6146 4.03203 25.3126 5.8259 25.2783 7.77577C25.244 9.44707 24.4544 11.0292 23.0584 12.2326C21.731 13.3691 20.0032 14.0153 18.2982 14.0153H18.1838L13.6753 13.9373L13.6868 13.0125L18.1952 13.0905C19.6828 13.1128 21.0902 12.5669 22.1659 11.5641C23.2415 10.5501 23.8479 9.20195 23.8708 7.75348C23.8937 6.58357 23.539 5.45822 22.8295 4.5L22.7838 4.52228C23.1614 5.30223 23.3445 6.13788 23.333 7.00696C23.2758 10.0822 20.6897 12.5334 17.5544 12.5334H17.4515L13.1604 12.4554L11.5813 12.422L8.81217 12.3774H8.75496C6.95844 12.3774 5.48233 13.7813 5.448 15.5418C5.43656 16.2994 5.69974 17.046 6.19178 17.6365L6.30621 17.7702L6.23755 17.6031C6.06591 17.1797 5.97437 16.7451 5.98581 16.2883C6.02014 14.4276 7.58779 12.9345 9.48729 12.9345H9.55595L11.0435 12.9568L11.0321 13.8816L9.54451 13.8593H9.49874C8.11416 13.8593 6.96989 14.9401 6.947 16.2994C6.93556 16.968 7.14153 17.4694 7.55347 17.8036C7.94252 18.1156 8.50321 18.2827 9.23555 18.2939C9.89923 18.305 10.4828 18.0153 10.9176 17.4916C11.3181 17.0125 11.547 16.3329 11.5584 15.6532L11.6042 12.9791L13.1261 13.0125L13.0803 15.6866C13.0574 16.9568 12.6455 18.1156 11.9246 18.9401C11.0092 19.9763 9.67038 20.5 7.90819 20.5C5.29924 20.5 3.28532 19.798 1.91219 18.4387C0.642042 17.1797 -0.0330809 15.3189 0.00124741 13.2242C0.0355757 11.5306 0.745026 9.94847 2.00373 8.76741C3.2281 7.61978 4.84153 6.98468 6.53506 6.98468H6.66093L11.1694 7.06267L11.1579 7.98746L6.64949 7.90947C5.16193 7.88719 3.75447 8.43315 2.67885 9.43593C1.60323 10.4499 0.996767 11.7981 0.973882 13.2465C0.950996 14.4164 1.30572 15.5418 2.01517 16.5L2.06094 16.4777C1.68333 15.6978 1.50025 14.8621 1.51169 13.993C1.53458 12.5 2.16393 11.0961 3.27388 10.0487C4.36094 9.02368 5.77984 8.46657 7.27884 8.46657H7.38182L11.6729 8.54457L13.252 8.57799L16.0211 8.62256H16.0783C17.8748 8.62256 19.3509 7.21866 19.3853 5.45822C19.3967 4.70056 19.1335 3.95404 18.6415 3.36351L18.5271 3.22981L18.5957 3.39694C18.7674 3.80919 18.8475 4.25487 18.836 4.7117C18.8017 6.57242 17.234 8.06546 15.3345 8.06546H15.2659L13.7783 8.04318L13.7898 7.11838L15.2773 7.14067C15.9639 7.16295 16.6047 6.90669 17.0967 6.44986C17.5888 5.99304 17.8634 5.36908 17.8748 4.7117C17.8863 4.04318 17.6803 3.54178 17.2684 3.20752C16.8793 2.89554 16.3186 2.72841 15.5863 2.71727H15.552C14.9112 2.71727 14.3276 3.00696 13.9042 3.5195C13.5037 3.99861 13.2748 4.67827 13.2634 5.35794L13.2176 8.03203L11.6957 7.99861L11.7415 5.32451C11.753 4.38858 11.9704 3.06267 12.8743 2.02646C13.7554 1.01253 15.1171 0.5 16.9136 0.5ZM17.5544 11.6086C20.1748 11.6086 22.3261 9.5585 22.3833 6.9624C22.4062 5.92618 22.0743 4.93454 21.445 4.09889L21.2848 3.89833L21.3878 4.13231C21.6967 4.78969 21.8455 5.50279 21.834 6.22702C21.8111 7.53064 21.2619 8.75627 20.3007 9.65877C19.3624 10.539 18.1266 11.0292 16.8221 11.0292H16.7306L13.7326 10.9735L13.744 10.0487L16.742 10.1045H16.8107C17.8634 10.1045 18.8589 9.70334 19.6256 8.99025C20.4151 8.25487 20.8499 7.27437 20.8728 6.21588C20.8843 5.30223 20.5982 4.44429 20.0261 3.7312L19.8888 3.56407L19.9803 3.76462C20.2206 4.29944 20.335 4.87883 20.3236 5.46936C20.3007 6.57242 19.843 7.60863 19.0191 8.37744C18.2181 9.1351 17.1768 9.54735 16.0669 9.54735H15.9868L13.2176 9.50279H13.1947V9.51393L11.6729 9.4805L7.35894 9.40251H7.2674C4.64701 9.40251 2.49577 11.4526 2.45 14.0153C2.42711 15.0515 2.74751 16.0432 3.3883 16.8788L3.53706 17.0794L3.43407 16.8454C3.12512 16.188 2.97636 15.4749 2.98781 14.7507C3.03358 12.0877 5.27636 9.94847 7.99973 9.94847H8.09128L11.0778 10.0265L11.0664 10.9513L8.06839 10.8955H7.99973C5.79128 10.8955 3.97188 12.6226 3.93756 14.7841C3.92611 15.6978 4.21218 16.5446 4.78432 17.2688L4.92163 17.4359L4.83009 17.2354C4.58979 16.7006 4.47536 16.1212 4.48681 15.5306C4.50969 14.4276 4.9674 13.3914 5.79128 12.6226C6.59227 11.8649 7.63357 11.4526 8.74351 11.4526H8.82361L11.5928 11.4972L13.1719 11.5306L17.4629 11.6086H17.5544Z" fill="#19AE82"/>
<path d="M42.2246 10.6974V16.8255H40.4051V10.8057C40.4051 8.51773 39.3177 7.30929 37.3426 7.30929C35.2119 7.30929 33.9246 8.84085 33.9246 11.3231V16.8255H32.1013V5.82068H33.6768L33.9208 7.30929C34.5875 6.46693 35.7402 5.68994 37.65 5.68994C40.2034 5.68994 42.2227 7.04967 42.2227 10.6955L42.2246 10.6974Z" fill="#19AE82"/>
<path d="M43.5774 11.3253C43.5774 7.98014 45.8868 5.69214 49.1933 5.69214C52.4999 5.69214 54.8093 7.98014 54.8093 11.3253C54.8093 14.6705 52.4999 16.9585 49.1933 16.9585C45.8868 16.9585 43.5774 14.6705 43.5774 11.3253ZM52.9456 11.3253C52.9456 8.97379 51.4355 7.26853 49.1933 7.26853C46.9512 7.26853 45.441 8.97379 45.441 11.3253C45.441 13.6768 46.9512 15.3821 49.1933 15.3821C51.4355 15.3821 52.9456 13.6768 52.9456 11.3253Z" fill="#19AE82"/>
<path d="M65.2647 1.72119H67.0842V16.8276H65.5087L65.2647 15.0589C64.5096 16.0731 63.2896 16.9584 61.3799 16.9584C58.2501 16.9584 55.9407 14.9076 55.9407 11.3252C55.9407 7.95951 58.2501 5.69205 61.3799 5.69205C63.2896 5.69205 64.5769 6.44662 65.2647 7.50564V1.72119ZM65.2878 11.3682C65.2878 8.95129 63.7776 7.26844 61.5585 7.26844C59.3394 7.26844 57.8062 8.93074 57.8062 11.3252C57.8062 13.7197 59.3164 15.382 61.5585 15.382C63.8007 15.382 65.2878 13.7197 65.2878 11.3682Z" fill="#19AE82"/>
<path d="M68.9055 1.72119H70.725V16.8276H68.9055V1.72119Z" fill="#19AE82"/>
<path d="M72.2561 11.3253C72.2561 7.98014 74.431 5.69214 77.628 5.69214C80.8251 5.69214 82.9116 7.65515 83 10.9144C83 11.1516 82.9769 11.4112 82.9558 11.669H74.1659V11.8203C74.2331 13.914 75.5857 15.3802 77.7395 15.3802C79.338 15.3802 80.5811 14.5603 80.9576 13.1352H82.8002C82.3563 15.3354 80.4908 16.9547 77.872 16.9547C74.4752 16.9547 72.2561 14.6891 72.2561 11.3216V11.3253ZM81.046 10.2028C80.8693 8.30327 79.5359 7.24611 77.6492 7.24611C75.9834 7.24611 74.4521 8.4116 74.2754 10.2028H81.046Z" fill="#19AE82"/>
</svg>
