<?xml version="1.0" encoding="utf-8"?>
<!-- Generator: Adobe Illustrator 26.0.3, SVG Export Plug-In . SVG Version: 6.00 Build 0)  -->
<svg version="1.1" id="Camada_1" xmlns="http://www.w3.org/2000/svg" xmlns:xlink="http://www.w3.org/1999/xlink" x="0px" y="0px"
	 viewBox="0 0 120 39" style="enable-background:new 0 0 120 39;" xml:space="preserve">
<style type="text/css">
	.st0{fill:#19AD83;}
</style>
<g>
	<path class="st0" d="M56.5,9.8c0,2.3,0,14.2,0,14.2c-0.8-1.5-1.8-3.4-2.7-5.2c-0.4-0.7-0.7-1.4-1.1-2.1c-1.7-3.3-3.2-6-4.3-7.9
		c-0.6-1-1.7-1.9-2.8-1.6c-0.5,0.1-1.5,0.7-1.5,2.5v17.6c0,0,2.5-0.1,2.5-2.9s0-13.7,0-13.7c1,1.8,2.3,4.2,3.8,7.1
		c0.4,0.7,0.7,1.4,1.1,2.1c1.1,2.1,2.2,4.3,3.2,6c0.5,0.9,1.4,1.7,2.4,1.7c0.2,0,0.3,0,0.5-0.1c0.5-0.1,1.5-0.7,1.5-2.5V7.4
		C59,7.4,56.5,7.5,56.5,9.8z"/>
	<path class="st0" d="M69.2,14.4c-3.7,0-6.7,3-6.7,6.7s3,6.7,6.7,6.7s6.7-3,6.7-6.7C75.9,17.4,72.9,14.4,69.2,14.4z M69.2,25.2
		c-2.3,0-4.2-1.9-4.2-4.2s1.9-4.2,4.2-4.2s4.2,1.9,4.2,4.2C73.3,23.3,71.5,25.2,69.2,25.2z"/>
	<path class="st0" d="M90,7.2v6.2V14v2.4c-1.2-1.4-3-2.3-5-2.3c-3.7,0-6.7,3-6.7,6.7s3,6.7,6.7,6.7c2,0,3.8-0.9,5-2.3
		c0,0.1,0,0.1,0,0.2c0,2.5,2.5,2.5,2.5,2.5v-2.7v-3.9v-3.6V17v-0.1c0-0.2,0-0.8,0-3c0-0.2,0-0.4,0-0.6c0-0.7,0-1.3,0-1.8v-0.1
		c0-0.7,0-1.3,0-1.7C92.5,7.1,90,7.2,90,7.2z M85,24.8c-2.3,0-4.2-1.9-4.2-4.2s1.9-4.2,4.2-4.2c2.3,0,4.2,1.9,4.2,4.2
		S87.3,24.8,85,24.8z"/>
	<path class="st0" d="M96.9,7.2v6.2v7.8c0,1.6,0,3.4,0,4.1c0,2.5,2.5,2.5,2.5,2.5v-6.6c0,0,0-3.5,0-7.8c0-1.6,0-3,0-3.6
		C99.5,7.1,96.9,7.2,96.9,7.2z"/>
	<path class="st0" d="M115.5,21.1c0-3.7-3-6.7-6.7-6.7s-6.7,3-6.7,6.7s3,6.7,6.7,6.7c1.8,0,3.5-0.7,4.7-2l-1.8-1.8
		c-0.7,0.7-1.8,1.2-2.9,1.2c-1.9,0-3.4-1.2-4-2.9h10.6v-1.2H115.5z M108.8,16.9c1.9,0,3.4,1.2,4,2.9h-7.9
		C105.4,18.1,106.9,16.9,108.8,16.9z"/>
</g>
<path class="st0" d="M17.9,17.6l2.5,0.1v-1.6L17.9,16V17.6z"/>
<path class="st0" d="M36,4.5C33.7,2.2,30.3,1,26.1,1c-2.8,0-4.9,0.8-6.2,2.4c-1.4,1.6-1.7,3.8-1.7,5.2l-0.1,4.2l2.4,0.1l0.1-4.2
	c0-1.1,0.4-2.2,1-2.9C22.1,5,23,4.5,24,4.5c0,0,0,0,0.1,0c1.1,0,2,0.3,2.6,0.8s1,1.3,0.9,2.4c0,1-0.4,2-1.2,2.8
	c-0.8,0.7-1.7,1.1-2.8,1.1h-2.3v1.5h2.3h0.1c2.9,0,5.4-2.4,5.4-5.3c0-0.7-0.1-1.4-0.4-2.1l-0.1-0.3l0.2,0.2c0.8,0.9,1.2,2.1,1.1,3.3
	c-0.1,2.8-2.3,5-5.1,5h-0.1l-4.3-0.1l-2.4,0l-6.6-0.1c-0.1,0-0.1,0-0.2,0c-2.3,0-4.5,0.9-6.2,2.5c-1.7,1.7-2.7,3.9-2.7,6.3
	c0,1.4,0.3,2.7,0.8,3.9H3c-1.1-1.5-1.6-3.3-1.6-5.2c0-2.3,1-4.4,2.6-6.1c1.7-1.6,3.8-2.5,6.1-2.4l7,0.1v-1.5l-7-0.1
	c-0.1,0-0.1,0-0.2,0c-2.6,0-5.1,1-7,2.8c-1.9,1.9-3,4.4-3.1,7.1c-0.1,3.3,1,6.3,3,8.3c2.1,2.2,5.2,3.3,9.3,3.3
	c2.7,0,4.8-0.8,6.2-2.5c1.1-1.3,1.7-3.2,1.8-5.2l0.1-4.2l-2.4-0.1l0.1,4.3c0,1.1-0.4,2.2-1,2.9c-0.7,0.8-1.6,1.3-2.6,1.3
	c-1.1,0-2-0.3-2.6-0.8s-1-1.3-0.9-2.4c0-2.2,1.8-3.9,3.9-3.9h0.1h2.3v-1.5h-2.3h-0.1c-2.9,0-5.4,2.4-5.4,5.3c0,0.7,0.1,1.4,0.4,2.1
	l0.1,0.3l-0.2-0.2c-0.8-0.9-1.2-2.1-1.1-3.3c0.1-2.8,2.3-5,5.1-5h0.1l4.3,0.1l2.4,0.1l6.6,0.1c0.1,0,0.1,0,0.2,0
	c4.8,0,8.8-3.9,8.9-8.8c0-1.4-0.3-2.7-0.8-3.9h0.1c1.1,1.5,1.6,3.3,1.6,5.2c0,2.3-1,4.4-2.6,6.1c-1.7,1.6-3.8,2.5-6.1,2.4l-7-0.1
	v1.5l7,0.1c0.1,0,0.1,0,0.2,0c2.6,0,5.3-1,7.4-2.8c2.2-1.9,3.4-4.4,3.4-7.1C39.1,9.4,38,6.6,36,4.5z M34.6,11.2
	c-0.1,4.1-3.4,7.4-7.5,7.4c-0.1,0-0.1,0-0.1,0l-6.6-0.1L18,18.4l-4.3-0.1h-0.1c-1.7,0-3.3,0.7-4.6,1.9c-1.3,1.2-2,2.9-2,4.6
	c0,0.9,0.2,1.9,0.5,2.7l0.1,0.3l-0.2-0.3c-0.9-1.2-1.3-2.5-1.3-3.9c0.1-3.4,2.9-6.2,6.3-6.2h0.1l4.6,0.1V16l-4.6,0
	c-0.1,0-0.1,0-0.1,0c-4.2,0-7.7,3.4-7.7,7.6c0,1.2,0.2,2.3,0.7,3.3l0.2,0.4L5.2,27c-1-1.3-1.5-2.9-1.4-4.5c0.1-4.1,3.4-7.3,7.4-7.3
	c0.1,0,0.1,0,0.1,0l6.7,0.1l2.4,0.1l0,0l0,0l4.3,0.1h0.1c1.7,0,3.3-0.7,4.6-1.9c1.3-1.2,2-2.9,2-4.6c0-0.9-0.2-1.9-0.5-2.7L30.8,6
	L31,6.3c0.9,1.1,1.3,2.5,1.3,3.9c0,1.7-0.7,3.2-1.9,4.4c-1.2,1.1-2.7,1.8-4.3,1.8H26l-4.6-0.1v1.5l4.6,0.1c0.1,0,0.1,0,0.1,0
	c2,0,3.9-0.8,5.4-2.2c1.5-1.4,2.3-3.4,2.4-5.5c0-1.2-0.2-2.3-0.7-3.3L33,6.5l0.2,0.3C34.1,8,34.6,9.6,34.6,11.2z"/>
</svg>
