<svg width="48" height="48" viewBox="0 0 48 48" fill="none" xmlns="http://www.w3.org/2000/svg">
<rect x="1" y="2" width="18" height="18" rx="9" stroke="white" stroke-width="2"/>
<rect x="6.5" y="7.5" width="7" height="7" rx="3.5" stroke="white"/>
<rect x="27" y="2" width="18" height="18" rx="2" stroke="white" stroke-width="2"/>
<rect x="32.5" y="7.5" width="7" height="7" rx="3.5" stroke="white"/>
<rect width="18" height="18" rx="9" transform="matrix(-1 0 0 1 45 28)" stroke="white" stroke-width="2"/>
<rect x="-0.5" y="0.5" width="7" height="7" rx="3.5" transform="matrix(-1 0 0 1 39 33)" stroke="white"/>
<rect width="18" height="18" rx="2" transform="matrix(-1 0 0 1 19 28)" stroke="white" stroke-width="2"/>
<rect x="-0.5" y="0.5" width="7" height="7" rx="3.5" transform="matrix(-1 0 0 1 13 33)" stroke="white"/>
</svg>
