<svg width="50" height="48" viewBox="0 0 50 48" fill="none" xmlns="http://www.w3.org/2000/svg">
<circle cx="23" cy="24" r="22" stroke="white" stroke-width="2"/>
<path d="M21.9912 24.2291L23.6612 24.2658L23.6794 23.183L22.0094 23.1426L21.9912 24.2291Z" fill="white"/>
<path d="M27.4524 13.0967C25.6115 13.0967 24.2216 13.64 23.3121 14.7118C22.3843 15.8057 22.1697 17.219 22.1515 18.2101L22.1005 21.0476L23.6577 21.0844L23.7086 18.2468C23.7232 17.52 23.9597 16.8079 24.3635 16.294C24.7928 15.7433 25.3895 15.446 26.0444 15.446C26.059 15.446 26.0699 15.446 26.0844 15.446C26.8303 15.4607 27.4087 15.6332 27.8053 15.9636C28.231 16.3196 28.442 16.8556 28.4311 17.553C28.4202 18.2542 28.1364 18.9112 27.6307 19.3995C27.1286 19.8877 26.4701 20.152 25.7715 20.1373L24.2507 20.1079L24.2326 21.0917L25.7533 21.1211C25.7752 21.1211 25.797 21.1211 25.8188 21.1211C27.7689 21.1211 29.3698 19.5389 29.4061 17.5677C29.4134 17.0868 29.3297 16.617 29.1551 16.1728L29.086 16.0003L29.2024 16.1434C29.7081 16.7675 29.9773 17.5567 29.9664 18.3606C29.9337 20.2217 28.4202 21.7157 26.5829 21.7157C26.561 21.7157 26.5428 21.7157 26.521 21.7157L23.6795 21.6643L22.0642 21.6276L17.6728 21.5469C17.6364 21.5469 17.6 21.5469 17.5636 21.5469C16.0283 21.5469 14.5766 22.1379 13.4633 23.2208C12.3246 24.3293 11.6842 25.816 11.6551 27.4055C11.6369 28.3232 11.8261 29.2115 12.2118 30.0411L12.1645 30.0705C11.4441 29.0573 11.073 27.8607 11.0948 26.6126C11.1239 25.0745 11.7425 23.6392 12.8412 22.571C13.94 21.5028 15.3807 20.9228 16.9051 20.9559L21.5257 21.0403L21.5439 20.0565L16.9233 19.9721C16.8833 19.9721 16.8396 19.9721 16.7996 19.9721C15.0605 19.9721 13.4197 20.6402 12.1609 21.8662C10.8802 23.1106 10.1525 24.7919 10.1198 26.5906C10.0798 28.8187 10.7783 30.7826 12.0808 32.1225C13.4888 33.5688 15.5517 34.3029 18.2149 34.3029C20.0122 34.3029 21.3947 33.745 22.3261 32.6437C23.0683 31.7627 23.4904 30.5367 23.5158 29.1895L23.5668 26.352L22.0096 26.3153L21.9587 29.1528C21.9441 29.8796 21.7076 30.5917 21.3038 31.1057C20.8635 31.6673 20.2559 31.9683 19.5829 31.9536C18.837 31.9389 18.2586 31.7664 17.862 31.436C17.4363 31.08 17.2253 30.5477 17.2362 29.8466C17.2617 28.4113 18.4296 27.2587 19.8448 27.2587C19.8594 27.2587 19.8776 27.2587 19.8921 27.2587L21.4129 27.288L21.4311 26.3042L19.9103 26.2785C19.8885 26.2785 19.8667 26.2785 19.8448 26.2785C17.8947 26.2785 16.2939 27.8607 16.2575 29.8319C16.2502 30.3128 16.3339 30.7826 16.5086 31.2268L16.5777 31.3993L16.4613 31.2562C15.9555 30.6285 15.6827 29.8429 15.6972 29.039C15.73 27.1779 17.2435 25.6839 19.0808 25.6839C19.1026 25.6839 19.1208 25.6839 19.1426 25.6839L21.9841 25.7353L23.5995 25.772L27.9909 25.8527C28.0272 25.8527 28.0636 25.8527 28.1 25.8527C31.3126 25.8527 33.9503 23.2465 34.0085 19.9941C34.0231 19.0764 33.8375 18.1881 33.4519 17.3585L33.4992 17.3291C34.2195 18.3423 34.5906 19.5389 34.5688 20.787C34.5397 22.3251 33.9212 23.7567 32.8225 24.8286C31.7237 25.8968 30.2793 26.4731 28.7585 26.4437L24.138 26.3593L24.1198 27.3431L28.7403 27.4275C28.7804 27.4275 28.8204 27.4275 28.8604 27.4275C30.6068 27.4275 32.375 26.7411 33.7284 25.5334C35.1618 24.2559 35.9659 22.5747 35.9986 20.8017C36.035 18.7314 35.3183 16.8372 33.9831 15.4607C32.4768 13.9153 30.2175 13.0967 27.4524 13.0967ZM28.1036 24.869C28.0745 24.869 28.0418 24.869 28.0127 24.869L23.6213 24.7882L22.0059 24.7515L19.1645 24.7001C19.139 24.7001 19.1099 24.7001 19.0844 24.7001C17.9493 24.7001 16.8797 25.1369 16.0574 25.9335C15.217 26.7521 14.744 27.846 14.7222 29.0206C14.7113 29.6483 14.8313 30.2577 15.0751 30.834L15.1624 31.0433L15.0314 30.8634C14.4493 30.0999 14.151 29.1895 14.1692 28.2314C14.2092 25.9445 16.0683 24.1091 18.3277 24.1091C18.3531 24.1091 18.3786 24.1091 18.4041 24.1091L21.4748 24.1642L21.493 23.1804L18.4223 23.1253C18.3895 23.1253 18.3604 23.1253 18.3277 23.1253C15.5371 23.1253 13.2414 25.3902 13.1905 28.2167C13.1759 28.9876 13.3287 29.7364 13.6416 30.4376L13.7508 30.6835L13.598 30.4596C12.9467 29.5713 12.6156 28.5214 12.6338 27.4165C12.6811 24.7001 14.8859 22.527 17.5673 22.527C17.5964 22.527 17.6255 22.527 17.6582 22.527L22.0751 22.6077V22.6224L23.6322 22.6591V22.6444H23.6614L26.5028 22.6958C26.5283 22.6958 26.5574 22.6958 26.5829 22.6958C27.718 22.6958 28.7876 22.259 29.6099 21.4624C30.4503 20.6439 30.9233 19.55 30.9451 18.3753C30.956 17.7476 30.836 17.1382 30.5922 16.5619L30.5049 16.3527L30.6431 16.5326C31.2253 17.2961 31.5236 18.2064 31.5054 19.1645C31.4872 20.2841 31.0324 21.3303 30.232 22.1085C29.4498 22.8684 28.4275 23.2868 27.3469 23.2868C27.3214 23.2868 27.296 23.2868 27.2705 23.2868L24.1998 23.2318L24.1816 24.2156L27.2523 24.2706C27.285 24.2706 27.3141 24.2706 27.3469 24.2706C28.6821 24.2706 29.9446 23.7567 30.9087 22.817C31.8983 21.8552 32.455 20.5631 32.4805 19.1829C32.495 18.412 32.3422 17.6632 32.0257 16.962L31.9165 16.7161L32.073 16.9327C32.7242 17.821 33.0553 18.8745 33.0371 19.9758C32.9898 22.6958 30.785 24.869 28.1036 24.869Z" fill="white"/>
</svg>
